<?xml version="1.0" encoding="utf-8"?>
<!-- Generator: Adobe Illustrator 19.0.0, SVG Export Plug-In . SVG Version: 6.00 Build 0)  -->
<svg version="1.1" id="Layer_1" xmlns="http://www.w3.org/2000/svg" xmlns:xlink="http://www.w3.org/1999/xlink" x="0px" y="0px"
	 viewBox="0 0 500 500" style="enable-background:new 0 0 500 500;" xml:space="preserve">
<style type="text/css">
	.st0{fill:#222223;}
	.st1{stroke:#FFFFFF;stroke-width:2;stroke-miterlimit:10;}
	.st2{fill:#FFFFFF;}
	.st3{fill:#FFFFFF;stroke:#000000;stroke-width:2;stroke-miterlimit:10;}
	.st4{font-family:'ArialMT';}
	.st5{font-size:14.7916px;}
	.st6{font-family:'SourceSansPro-Light';}
	.st7{letter-spacing:2;}
</style>
<rect id="XMLID_2_" x="2172.1" y="-582.8" class="st0" width="500" height="500"/>
<g id="XMLID_24_">
	<path id="XMLID_42_" class="st1" d="M2520,371.1h-32.5c-6.8,0-12.3-5.5-12.3-12.3v-32.5c0-6.8,5.5-12.3,12.3-12.3h32.5
		c6.8,0,12.3,5.5,12.3,12.3v32.5C2532.2,365.6,2526.8,371.1,2520,371.1z"/>
	<g id="XMLID_25_">
		<path id="XMLID_40_" class="st2" d="M2488,362.4v-40h5.4l21,31.4v-31.4h5.1v40h-5.4l-21-31.4v31.4H2488z"/>
		<path id="XMLID_38_" d="M2634.6,362.4v-40h5.3v35.3h19.7v4.7H2634.6z"/>
		<path id="XMLID_36_" d="M2671.8,362.4v-40h28.9v4.7h-23.6v12.3h22.1v4.7h-22.1v13.6h24.6v4.7H2671.8z"/>
		<path id="XMLID_34_" d="M2570.7,322.6h5.2v22.7c0,4-0.4,7.1-1.3,9.4c-0.9,2.3-2.5,4.2-4.8,5.7c-2.3,1.5-5.4,2.2-9.2,2.2
			c-3.7,0-6.7-0.6-9-1.9s-4-3.1-5-5.5c-1-2.4-1.5-5.7-1.5-9.9v-22.7h5.2v22.7c0,3.4,0.3,5.9,1,7.6c0.6,1.6,1.7,2.9,3.3,3.7
			c1.5,0.9,3.4,1.3,5.7,1.3c3.8,0,6.6-0.9,8.2-2.6c1.6-1.7,2.4-5.1,2.4-10V322.6z"/>
		<path id="XMLID_32_" d="M2739.6,322.4h5.2v22.7c0,4-0.4,7.1-1.3,9.4c-0.9,2.3-2.5,4.2-4.8,5.7c-2.3,1.5-5.4,2.2-9.2,2.2
			c-3.7,0-6.7-0.6-9-1.9s-4-3.1-5-5.5c-1-2.4-1.5-5.7-1.5-9.9v-22.7h5.2v22.7c0,3.4,0.3,5.9,1,7.6c0.6,1.6,1.7,2.9,3.3,3.7
			c1.5,0.9,3.4,1.3,5.7,1.3c3.8,0,6.6-0.9,8.2-2.6c1.6-1.7,2.4-5.1,2.4-10V322.4z"/>
		<path id="XMLID_30_" d="M2757.1,349.3l4.8-0.4c0.2,1.9,0.8,3.5,1.6,4.8c0.8,1.2,2.1,2.2,3.9,3s3.7,1.1,5.9,1.1
			c2,0,3.7-0.3,5.2-0.9c1.5-0.6,2.6-1.4,3.3-2.4c0.7-1,1.1-2.1,1.1-3.3c0-1.2-0.4-2.3-1.1-3.2s-1.9-1.7-3.5-2.3
			c-1-0.4-3.3-1-6.9-1.9s-6-1.7-7.5-2.4c-1.8-1-3.2-2.2-4.1-3.6c-0.9-1.4-1.4-3-1.4-4.8c0-2,0.6-3.8,1.7-5.5s2.7-3,4.9-3.9
			s4.5-1.3,7.1-1.3c2.9,0,5.4,0.5,7.6,1.4c2.2,0.9,3.9,2.3,5.1,4.1s1.8,3.8,1.9,6.1l-4.9,0.4c-0.3-2.4-1.2-4.3-2.7-5.5
			s-3.8-1.9-6.7-1.9c-3.1,0-5.4,0.6-6.8,1.7c-1.4,1.1-2.1,2.5-2.1,4.1c0,1.4,0.5,2.5,1.5,3.4c1,0.9,3.6,1.8,7.7,2.8s7,1.8,8.6,2.5
			c2.3,1,3.9,2.4,5,3.9c1.1,1.6,1.6,3.4,1.6,5.5c0,2.1-0.6,4-1.8,5.8c-1.2,1.8-2.9,3.2-5.1,4.2c-2.2,1-4.7,1.5-7.5,1.5
			c-3.5,0-6.4-0.5-8.8-1.5c-2.4-1-4.2-2.6-5.6-4.6C2757.9,354.2,2757.1,351.9,2757.1,349.3z"/>
		<g id="XMLID_27_">
			<path id="XMLID_28_" d="M2617.2,348.2l5.1,1.3c-1.1,4.2-3,7.4-5.8,9.6c-2.8,2.2-6.2,3.3-10.2,3.3c-4.2,0-7.6-0.8-10.2-2.5
				c-2.6-1.7-4.6-4.2-6-7.4c-1.4-3.2-2-6.7-2-10.4c0-4,0.8-7.5,2.3-10.5c1.5-3,3.7-5.3,6.6-6.8c2.8-1.6,6-2.3,9.4-2.3
				c3.9,0,7.1,1,9.8,3c2.6,2,4.5,4.7,5.5,8.3l-5,1.2c-0.9-2.8-2.2-4.9-3.9-6.1c-1.7-1.3-3.9-1.9-6.4-1.9c-3,0-5.5,0.7-7.5,2.1
				c-2,1.4-3.4,3.3-4.2,5.7c-0.8,2.4-1.2,4.9-1.2,7.4c0,3.3,0.5,6.2,1.4,8.6s2.4,4.3,4.5,5.5s4.2,1.8,6.6,1.8c2.9,0,5.3-0.8,7.3-2.5
				S2616.5,351.4,2617.2,348.2z"/>
		</g>
		<text id="XMLID_26_" transform="matrix(1 0 0 1 2792.0806 318.4115)" class="st4" style="font-size:12px;">速</text>
	</g>
</g>
<g id="XMLID_43_">
	<path id="XMLID_61_" class="st3" d="M2520,206.1h-32.5c-6.8,0-12.3-5.5-12.3-12.3v-32.5c0-6.8,5.5-12.3,12.3-12.3h32.5
		c6.8,0,12.3,5.5,12.3,12.3v32.5C2532.2,200.6,2526.8,206.1,2520,206.1z"/>
	<g id="XMLID_44_">
		<path id="XMLID_59_" d="M2488,197.4v-40h5.4l21,31.4v-31.4h5.1v40h-5.4l-21-31.4v31.4H2488z"/>
		<path id="XMLID_57_" d="M2634.6,197.4v-40h5.3v35.3h19.7v4.7H2634.6z"/>
		<path id="XMLID_55_" d="M2671.8,197.4v-40h28.9v4.7h-23.6v12.3h22.1v4.7h-22.1v13.6h24.6v4.7H2671.8z"/>
		<path id="XMLID_53_" d="M2570.7,157.6h5.2v22.7c0,4-0.4,7.1-1.3,9.4c-0.9,2.3-2.5,4.2-4.8,5.7c-2.3,1.5-5.4,2.2-9.2,2.2
			c-3.7,0-6.7-0.6-9-1.9c-2.3-1.3-4-3.1-5-5.5c-1-2.4-1.5-5.7-1.5-9.9v-22.7h5.2v22.7c0,3.4,0.3,5.9,1,7.6c0.6,1.6,1.7,2.9,3.3,3.7
			s3.4,1.3,5.7,1.3c3.8,0,6.6-0.9,8.2-2.6c1.6-1.7,2.4-5.1,2.4-10V157.6z"/>
		<path id="XMLID_51_" d="M2739.6,157.4h5.2v22.7c0,4-0.4,7.1-1.3,9.4c-0.9,2.3-2.5,4.2-4.8,5.7c-2.3,1.5-5.4,2.2-9.2,2.2
			c-3.7,0-6.7-0.6-9-1.9c-2.3-1.3-4-3.1-5-5.5c-1-2.4-1.5-5.7-1.5-9.9v-22.7h5.2v22.7c0,3.4,0.3,5.9,1,7.6c0.6,1.6,1.7,2.9,3.3,3.7
			c1.5,0.9,3.4,1.3,5.7,1.3c3.8,0,6.6-0.9,8.2-2.6c1.6-1.7,2.4-5.1,2.4-10V157.4z"/>
		<path id="XMLID_49_" d="M2757.1,184.3l4.8-0.4c0.2,1.9,0.8,3.5,1.6,4.8c0.8,1.2,2.1,2.2,3.9,3c1.8,0.8,3.7,1.1,5.9,1.1
			c2,0,3.7-0.3,5.2-0.9c1.5-0.6,2.6-1.4,3.3-2.4s1.1-2.1,1.1-3.3c0-1.2-0.4-2.3-1.1-3.2c-0.7-0.9-1.9-1.7-3.5-2.3
			c-1-0.4-3.3-1-6.9-1.9c-3.6-0.9-6-1.7-7.5-2.4c-1.8-1-3.2-2.2-4.1-3.6c-0.9-1.4-1.4-3-1.4-4.8c0-2,0.6-3.8,1.7-5.5s2.7-3,4.9-3.9
			s4.5-1.3,7.1-1.3c2.9,0,5.4,0.5,7.6,1.4s3.9,2.3,5.1,4.1c1.2,1.8,1.8,3.8,1.9,6.1l-4.9,0.4c-0.3-2.4-1.2-4.3-2.7-5.5
			s-3.8-1.9-6.7-1.9c-3.1,0-5.4,0.6-6.8,1.7s-2.1,2.5-2.1,4.1c0,1.4,0.5,2.5,1.5,3.4c1,0.9,3.6,1.8,7.7,2.8s7,1.8,8.6,2.5
			c2.3,1,3.9,2.4,5,3.9c1.1,1.6,1.6,3.4,1.6,5.5c0,2.1-0.6,4-1.8,5.8c-1.2,1.8-2.9,3.2-5.1,4.2c-2.2,1-4.7,1.5-7.5,1.5
			c-3.5,0-6.4-0.5-8.8-1.5c-2.4-1-4.2-2.6-5.6-4.6C2757.9,189.2,2757.1,186.9,2757.1,184.3z"/>
		<g id="XMLID_46_">
			<path id="XMLID_47_" d="M2617.2,183.2l5.1,1.3c-1.1,4.2-3,7.4-5.8,9.6c-2.8,2.2-6.2,3.3-10.2,3.3c-4.2,0-7.6-0.8-10.2-2.5
				c-2.6-1.7-4.6-4.2-6-7.4c-1.4-3.2-2-6.7-2-10.4c0-4,0.8-7.5,2.3-10.5c1.5-3,3.7-5.3,6.6-6.8c2.8-1.6,6-2.3,9.4-2.3
				c3.9,0,7.1,1,9.8,3c2.6,2,4.5,4.7,5.5,8.3l-5,1.2c-0.9-2.8-2.2-4.9-3.9-6.1c-1.7-1.3-3.9-1.9-6.4-1.9c-3,0-5.5,0.7-7.5,2.1
				c-2,1.4-3.4,3.3-4.2,5.7c-0.8,2.4-1.2,4.9-1.2,7.4c0,3.3,0.5,6.2,1.4,8.6c1,2.5,2.4,4.3,4.5,5.5c2,1.2,4.2,1.8,6.6,1.8
				c2.9,0,5.3-0.8,7.3-2.5C2615.2,188.9,2616.5,186.4,2617.2,183.2z"/>
		</g>
		<text id="XMLID_45_" transform="matrix(1 0 0 1 2792.0806 153.4115)" class="st4" style="font-size:12px;">速</text>
	</g>
</g>
<text id="XMLID_19_" transform="matrix(1 0 0 1 2538.4553 -362.762)" style="font-family:'SourceSansPro-LightIt'; font-size:12px;">BE SMART</text>
<text id="XMLID_21_" transform="matrix(1 0 0 1 2542.7886 -332.762)" class="st6" style="font-size:12px;">BE SMART</text>
<g id="XMLID_20_">
	<path id="XMLID_82_" class="st2" d="M105,280v-1.2H65c-3.8,0-7.3-1.6-9.8-4.1c-2.5-2.5-4.1-6-4.1-9.8v-40.1c0-3.8,1.6-7.3,4.1-9.8
		c2.5-2.5,6-4.1,9.8-4.1H105c3.8,0,7.3,1.6,9.8,4.1c2.5,2.5,4.1,6,4.1,9.8v40.1c0,3.8-1.6,7.3-4.1,9.8c-2.5,2.5-6,4.1-9.8,4.1V280
		v1.2c9,0,16.3-7.3,16.3-16.3v-40.1c0-9-7.3-16.3-16.3-16.3H65c-9,0-16.3,7.3-16.3,16.3v40.1c0,9,7.3,16.3,16.3,16.3H105V280z"/>
	<polygon id="XMLID_83_" class="st2" points="65.6,269.3 65.6,220 72.3,220 98.2,258.7 98.2,220 104.4,220 104.4,269.3 97.7,269.3 
		71.9,230.5 71.9,269.3 	"/>
	<polygon id="XMLID_84_" class="st2" points="246.3,269.3 246.3,220 252.8,220 252.8,263.5 277.1,263.5 277.1,269.3 	"/>
	<polygon id="XMLID_85_" class="st2" points="292.2,269.3 292.2,220 327.8,220 327.8,225.8 298.7,225.8 298.7,240.9 326,240.9 
		326,246.7 298.7,246.7 298.7,263.5 329,263.5 329,269.3 	"/>
	<path id="XMLID_86_" class="st2" d="M167.6,220.2h6.4v28c0,4.9-0.6,8.7-1.7,11.6c-1.1,2.9-3.1,5.2-6,7c-2.9,1.8-6.7,2.7-11.3,2.7
		c-4.5,0-8.3-0.8-11.1-2.3c-2.9-1.6-4.9-3.8-6.2-6.8c-1.2-3-1.9-7-1.9-12.2v-28h6.4v28c0,4.2,0.4,7.3,1.2,9.3c0.8,2,2.1,3.5,4,4.6
		c1.9,1.1,4.2,1.6,7,1.6c4.7,0,8.1-1.1,10.1-3.2c2-2.1,3-6.2,3-12.3V220.2z"/>
	<path id="XMLID_87_" class="st2" d="M375.8,220h6.4v28c0,4.9-0.6,8.7-1.7,11.6c-1.1,2.9-3.1,5.2-6,7c-2.9,1.8-6.7,2.7-11.3,2.7
		c-4.5,0-8.3-0.8-11.1-2.3s-4.9-3.8-6.2-6.8s-1.9-7-1.9-12.2v-28h6.4v28c0,4.2,0.4,7.3,1.2,9.3s2.1,3.5,4,4.6c1.9,1.1,4.2,1.6,7,1.6
		c4.7,0,8.1-1.1,10.1-3.2c2-2.1,3-6.2,3-12.3V220z"/>
	<path id="XMLID_88_" class="st2" d="M397.3,253.1l6-0.5c0.3,2.4,0.9,4.3,2,5.9s2.6,2.8,4.8,3.7c2.2,0.9,4.6,1.4,7.3,1.4
		c2.4,0,4.5-0.4,6.4-1.1c1.8-0.7,3.2-1.7,4.1-2.9c0.9-1.2,1.3-2.6,1.3-4.1c0-1.5-0.4-2.8-1.3-3.9c-0.9-1.1-2.3-2.1-4.3-2.8
		c-1.3-0.5-4.1-1.3-8.5-2.3s-7.4-2-9.2-3c-2.3-1.2-4-2.7-5.1-4.4s-1.7-3.7-1.7-5.9c0-2.4,0.7-4.7,2-6.7c1.4-2.1,3.4-3.7,6-4.8
		c2.6-1.1,5.5-1.6,8.7-1.6c3.5,0,6.7,0.6,9.4,1.7c2.7,1.1,4.8,2.8,6.2,5c1.5,2.2,2.2,4.7,2.3,7.5l-6,0.5c-0.3-3-1.4-5.3-3.3-6.8
		s-4.6-2.3-8.3-2.3c-3.8,0-6.6,0.7-8.3,2.1c-1.7,1.4-2.6,3.1-2.6,5.1c0,1.7,0.6,3.1,1.9,4.2c1.2,1.1,4.4,2.2,9.5,3.4
		c5.1,1.2,8.6,2.2,10.6,3c2.8,1.3,4.8,2.9,6.1,4.9c1.3,2,2,4.2,2,6.8c0,2.5-0.7,4.9-2.2,7.2c-1.5,2.2-3.5,4-6.3,5.2
		c-2.7,1.2-5.8,1.9-9.2,1.9c-4.3,0-7.9-0.6-10.8-1.9s-5.2-3.1-6.9-5.7C398.2,259.2,397.4,256.3,397.3,253.1z"/>
	<path id="XMLID_89_" class="st2" d="M224.9,251.7l6.3,1.6c-1.3,5.2-3.7,9.1-7.1,11.8s-7.6,4.1-12.6,4.1c-5.1,0-9.3-1-12.5-3.1
		c-3.2-2.1-5.7-5.1-7.3-9.1c-1.7-4-2.5-8.2-2.5-12.8c0-5,0.9-9.3,2.8-13s4.6-6.5,8.1-8.4c3.5-1.9,7.4-2.9,11.6-2.9
		c4.8,0,8.8,1.2,12,3.6s5.5,5.8,6.8,10.2l-6.2,1.5c-1.1-3.5-2.7-6-4.8-7.6s-4.7-2.4-7.9-2.4c-3.7,0-6.7,0.9-9.2,2.6
		s-4.2,4.1-5.2,7.1c-1,3-1.5,6-1.5,9.2c0,4.1,0.6,7.6,1.8,10.6c1.2,3,3,5.3,5.5,6.8s5.2,2.2,8.1,2.2c3.5,0,6.5-1,9-3.1
		S224,255.7,224.9,251.7z"/>
	<text id="XMLID_91_" transform="matrix(1 0 0 1 440.4287 215.0352)" class="st2 st4 st5">速</text>
	<text id="XMLID_92_" transform="matrix(1 0 0 1 354.9355 293.4121)"><tspan x="0" y="0" class="st2 st6 st5 st7">B</tspan><tspan x="11.4" y="0" class="st2 st6 st5 st7">E</tspan><tspan x="21.8" y="0" class="st2 st6 st5 st7"> S</tspan><tspan x="38.3" y="0" class="st2 st6 st5 st7">M</tspan><tspan x="51.6" y="0" class="st2 st6 st5 st7">A</tspan><tspan x="62.2" y="0" class="st2 st6 st5 st7">R</tspan><tspan x="73" y="0" class="st2 st6 st5">T</tspan></text>
</g>
<g id="XMLID_23_">
	<g id="XMLID_79_">
		<path id="XMLID_80_" class="st2" d="M2164-454.8v-1.2H2124c-3.8,0-7.3-1.6-9.8-4.1c-2.5-2.5-4.1-6-4.1-9.8V-510
			c0-3.8,1.6-7.3,4.1-9.8c2.5-2.5,6-4.1,9.8-4.1h40.1c3.8,0,7.3,1.6,9.8,4.1c2.5,2.5,4.1,6,4.1,9.8v40.1c0,3.8-1.6,7.3-4.1,9.8
			c-2.5,2.5-6,4.1-9.8,4.1V-454.8v1.2c9,0,16.3-7.3,16.3-16.3V-510c0-9-7.3-16.3-16.3-16.3H2124c-9,0-16.3,7.3-16.3,16.3v40.1
			c0,9,7.3,16.3,16.3,16.3h40.1V-454.8z"/>
	</g>
	<path id="XMLID_77_" class="st2" d="M2124.6-465.5v-49.3h6.7l25.9,38.7v-38.7h6.3v49.3h-6.7l-25.9-38.7v38.7H2124.6z"/>
	<path id="XMLID_75_" class="st2" d="M2305.3-465.5v-49.3h6.5v43.5h24.3v5.8H2305.3z"/>
	<path id="XMLID_73_" class="st2" d="M2351.2-465.5v-49.3h35.7v5.8h-29.1v15.1h27.3v5.8h-27.3v16.8h30.3v5.8H2351.2z"/>
	<path id="XMLID_71_" class="st2" d="M2226.6-514.5h6.4v28c0,4.9-0.6,8.7-1.7,11.6c-1.1,2.9-3.1,5.2-6,7c-2.9,1.8-6.7,2.7-11.3,2.7
		c-4.5,0-8.3-0.8-11.1-2.3c-2.9-1.6-4.9-3.8-6.2-6.8c-1.2-3-1.9-7-1.9-12.2v-28h6.4v28c0,4.2,0.4,7.3,1.2,9.3s2.1,3.5,4,4.6
		c1.9,1.1,4.2,1.6,7,1.6c4.7,0,8.1-1.1,10.1-3.2c2-2.1,3-6.3,3-12.3V-514.5z"/>
	<path id="XMLID_69_" class="st2" d="M2434.8-514.8h6.4v28c0,4.9-0.6,8.7-1.7,11.6c-1.1,2.9-3.1,5.2-6,7c-2.9,1.8-6.7,2.7-11.3,2.7
		c-4.5,0-8.3-0.8-11.1-2.3s-4.9-3.8-6.2-6.8s-1.9-7-1.9-12.2v-28h6.4v28c0,4.2,0.4,7.3,1.2,9.3c0.8,2,2.1,3.5,4,4.6
		c1.9,1.1,4.2,1.6,7,1.6c4.7,0,8.1-1.1,10.1-3.2c2-2.1,3-6.2,3-12.3V-514.8z"/>
	<path id="XMLID_67_" class="st2" d="M2456.3-481.6l6-0.5c0.3,2.4,0.9,4.3,2,5.9c1,1.5,2.6,2.8,4.8,3.7s4.6,1.4,7.3,1.4
		c2.4,0,4.5-0.4,6.4-1.1s3.2-1.7,4.1-2.9c0.9-1.2,1.3-2.6,1.3-4.1c0-1.5-0.4-2.8-1.3-3.9c-0.9-1.1-2.3-2.1-4.3-2.8
		c-1.3-0.5-4.1-1.3-8.5-2.3c-4.4-1.1-7.4-2-9.2-3c-2.3-1.2-4-2.7-5.1-4.4c-1.1-1.8-1.7-3.7-1.7-5.9c0-2.4,0.7-4.7,2-6.7
		s3.4-3.7,6-4.8c2.6-1.1,5.5-1.6,8.7-1.6c3.5,0,6.7,0.6,9.4,1.7c2.7,1.1,4.8,2.8,6.2,5c1.5,2.2,2.2,4.7,2.3,7.5l-6,0.5
		c-0.3-3-1.4-5.3-3.3-6.8c-1.9-1.5-4.6-2.3-8.3-2.3c-3.8,0-6.6,0.7-8.3,2.1s-2.6,3.1-2.6,5.1c0,1.7,0.6,3.1,1.9,4.2
		c1.2,1.1,4.4,2.2,9.5,3.4s8.6,2.2,10.6,3c2.8,1.3,4.8,2.9,6.1,4.9c1.3,2,2,4.2,2,6.8c0,2.5-0.7,4.9-2.2,7.2s-3.5,4-6.3,5.2
		s-5.8,1.9-9.2,1.9c-4.3,0-7.9-0.6-10.8-1.9s-5.2-3.1-6.9-5.7C2457.2-475.6,2456.4-478.4,2456.3-481.6z"/>
	<path id="XMLID_65_" class="st2" d="M2283.9-483l6.3,1.6c-1.3,5.2-3.7,9.1-7.1,11.8s-7.6,4.1-12.6,4.1c-5.1,0-9.3-1-12.5-3.1
		c-3.2-2.1-5.7-5.1-7.3-9.1c-1.7-4-2.5-8.2-2.5-12.8c0-5,0.9-9.3,2.8-13c1.9-3.7,4.6-6.5,8.1-8.4c3.5-1.9,7.4-2.9,11.6-2.9
		c4.8,0,8.8,1.2,12,3.6c3.3,2.4,5.5,5.8,6.8,10.2l-6.2,1.5c-1.1-3.5-2.7-6-4.8-7.6c-2.1-1.6-4.7-2.4-7.9-2.4c-3.7,0-6.7,0.9-9.2,2.6
		c-2.5,1.8-4.2,4.1-5.2,7.1c-1,3-1.5,6-1.5,9.2c0,4.1,0.6,7.6,1.8,10.6c1.2,3,3,5.3,5.5,6.8c2.5,1.5,5.2,2.2,8.1,2.2
		c3.5,0,6.5-1,9-3.1S2283-479,2283.9-483z"/>
	<text id="XMLID_64_" transform="matrix(1 0 0 1 2499.4172 -519.7117)" class="st2 st4 st5">速</text>
	<text id="XMLID_62_" transform="matrix(1 0 0 1 2413.9241 -441.3349)" class="st2 st6 st5 st7">BE SMART</text>
</g>
</svg>
